<svg width="512" height="512" viewBox="0 0 512 512" fill="none" xmlns="http://www.w3.org/2000/svg">
<rect x="32" y="32" width="448" height="448" rx="24" fill="url(#paint0_linear_9_16)"/>
<rect x="72" y="72" width="368" height="368" rx="8" fill="#121519"/>
<path d="M344.714 174.902C328.117 167.311 310.602 161.898 292.607 158.798C292.443 158.768 292.274 158.79 292.124 158.86C291.974 158.931 291.85 159.047 291.769 159.192C289.519 163.181 287.026 168.384 285.281 172.473C265.604 169.537 246.028 169.537 226.755 172.473C225.01 168.293 222.427 163.181 220.166 159.192C220.083 159.051 219.958 158.937 219.809 158.867C219.659 158.797 219.492 158.773 219.329 158.799C201.332 161.892 183.815 167.305 167.22 174.901C167.078 174.962 166.959 175.065 166.878 175.196C133.69 224.601 124.597 272.792 129.058 320.385C129.071 320.502 129.107 320.615 129.164 320.717C129.221 320.82 129.298 320.91 129.391 320.982C151.287 337.005 172.498 346.732 193.315 353.18C193.477 353.228 193.65 353.225 193.81 353.173C193.971 353.121 194.111 353.021 194.213 352.886C199.137 346.186 203.526 339.12 207.291 331.691C207.342 331.589 207.372 331.478 207.377 331.364C207.383 331.25 207.364 331.136 207.322 331.03C207.28 330.924 207.216 330.828 207.134 330.748C207.052 330.668 206.954 330.607 206.847 330.568C199.884 327.936 193.254 324.727 186.877 321.084C186.76 321.016 186.663 320.92 186.592 320.805C186.522 320.691 186.481 320.561 186.473 320.427C186.465 320.292 186.49 320.158 186.546 320.036C186.603 319.914 186.688 319.808 186.796 319.726C188.138 318.724 189.48 317.683 190.762 316.629C190.875 316.536 191.013 316.476 191.159 316.456C191.306 316.436 191.455 316.458 191.589 316.518C233.486 335.578 278.843 335.578 320.244 316.518C320.379 316.454 320.529 316.429 320.677 316.447C320.826 316.465 320.966 316.525 321.081 316.619C322.364 317.671 323.705 318.724 325.058 319.726C325.166 319.807 325.252 319.913 325.309 320.034C325.366 320.156 325.392 320.289 325.385 320.423C325.378 320.557 325.338 320.687 325.269 320.802C325.2 320.917 325.103 321.014 324.988 321.083C318.608 324.796 311.924 327.965 305.009 330.557C304.901 330.598 304.804 330.661 304.723 330.742C304.641 330.823 304.578 330.92 304.537 331.027C304.496 331.134 304.478 331.249 304.485 331.363C304.491 331.477 304.522 331.589 304.575 331.691C308.419 339.11 312.808 346.175 317.641 352.876C317.74 353.014 317.88 353.118 318.041 353.172C318.202 353.227 318.377 353.229 318.54 353.18C339.457 346.731 360.667 337.004 382.564 320.982C382.658 320.913 382.737 320.825 382.794 320.724C382.852 320.623 382.887 320.511 382.898 320.395C388.235 265.371 373.957 217.576 345.047 175.205C344.976 175.068 344.858 174.961 344.714 174.902ZM213.547 291.406C200.933 291.406 190.54 279.866 190.54 265.695C190.54 251.525 200.732 239.986 213.548 239.986C226.463 239.986 236.755 251.626 236.553 265.696C236.553 279.866 226.362 291.406 213.547 291.406ZM298.611 291.406C285.998 291.406 275.604 279.866 275.604 265.695C275.604 251.525 285.795 239.986 298.611 239.986C311.526 239.986 321.818 251.626 321.617 265.696C321.617 279.866 311.526 291.406 298.611 291.406Z" fill="white"/>
<defs>
<linearGradient id="paint0_linear_9_16" x1="32" y1="32" x2="480" y2="480" gradientUnits="userSpaceOnUse">
<stop stop-color="#FFA825"/>
<stop offset="0.23" stop-color="#FE315D"/>
<stop offset="0.716" stop-color="#107AF6"/>
</linearGradient>
</defs>
</svg>
